<?xml version="1.0" encoding="UTF-8" standalone="no"?>
<svg
   version="1.0"
   width="1000.7944pt"
   height="1479.1759pt"
   viewBox="0 0 1000.7944 1479.1759"
   preserveAspectRatio="xMidYMid"
   id="svg146"
   sodipodi:docname="Thinkube_icons.svg"
   xml:space="preserve"
   inkscape:version="1.2.2 (b0a8486541, 2022-12-01)"
   xmlns:inkscape="http://www.inkscape.org/namespaces/inkscape"
   xmlns:sodipodi="http://sodipodi.sourceforge.net/DTD/sodipodi-0.dtd"
   xmlns="http://www.w3.org/2000/svg"
   xmlns:svg="http://www.w3.org/2000/svg"><defs
     id="defs150" /><sodipodi:namedview
     id="namedview148"
     pagecolor="#ffffff"
     bordercolor="#000000"
     borderopacity="0.25"
     inkscape:showpageshadow="2"
     inkscape:pageopacity="0.0"
     inkscape:pagecheckerboard="0"
     inkscape:deskcolor="#d1d1d1"
     inkscape:document-units="pt"
     showgrid="false"
     inkscape:zoom="0.41799165"
     inkscape:cx="978.48845"
     inkscape:cy="919.87483"
     inkscape:window-width="1920"
     inkscape:window-height="1011"
     inkscape:window-x="0"
     inkscape:window-y="0"
     inkscape:window-maximized="1"
     inkscape:current-layer="svg146" /><metadata
     id="metadata116">
Created by potrace 1.16, written by Peter Selinger 2001-2019
</metadata><g
     id="g326"
     transform="translate(-100.13916,-130.89164)"
     style="fill:#006680"><desc
       id="desc1798">AI</desc><path
       d="m 208,135.3 c -32.5,18.9 -100.1,60.5 -102.7,63.2 -1.7,1.8 -3.7,5.2 -4.3,7.4 -0.7,2.8 -1,23.3 -0.8,64.9 l 0.3,60.8 2.7,4.1 c 3,4.6 1.3,3.5 48.3,31.5 19.8,11.9 41,24.6 47,28.3 6.1,3.8 12.6,7.7 14.5,8.7 4.2,2.2 10.8,2.3 15.7,0.3 3.2,-1.4 43.3,-25.3 89.7,-53.7 11,-6.7 18,-11.7 20,-14.1 l 3.1,-3.9 0.3,-62.1 c 0.3,-68.1 0.3,-67.3 -5.6,-73 -1.5,-1.4 -9.9,-6.8 -18.7,-11.9 -8.8,-5.2 -31.7,-19 -51,-30.8 -19.2,-11.7 -36.4,-21.9 -38.2,-22.6 -6.3,-2.7 -12.1,-1.8 -20.3,2.9 z m 1.9,53.8 3.1,1.1 v 17.4 17.4 l -2.7,-0.6 c -4.6,-1.1 -8.1,-3.6 -11.3,-8.1 -5.1,-7 -11,-7.2 -11,-0.4 0,8.1 6,14 18.3,18.3 l 6.7,2.3 v 27.2 27.3 h -2.5 c -3.6,0 -11.7,3.3 -15.7,6.3 -8.9,6.8 -10.8,24.7 -2.7,24.7 2.1,0 3.4,-2.1 4.3,-7.2 1.2,-6.4 5.8,-10.6 14.4,-13.3 l 2.2,-0.6 -0.2,19.7 -0.3,19.7 -3.9,2 c -8.1,4.2 -19.2,3.2 -26,-2.5 -3.7,-3 -7.6,-9.4 -7.6,-12.3 0,-0.8 -0.7,-1.5 -1.6,-1.5 -4.3,0 -10.2,-2.8 -14.1,-6.6 -5.4,-5.4 -7.3,-12.8 -5.5,-21.3 1.1,-5 1,-5.7 -0.4,-6.6 -7.9,-4.7 -11.6,-11 -11.6,-19.5 0,-6.8 1.7,-10.4 7.2,-15.4 l 4.1,-3.7 -1.7,-4.5 c -2.3,-6 -1.4,-14.3 2.1,-19.4 2.5,-3.6 10.7,-9 13.8,-9 0.9,0 1.6,-1.4 2,-4 1.2,-9 8.9,-19.5 17.7,-24 7.1,-3.6 17.1,-4.9 22.9,-2.9 z m 42,2.4 c 10.4,5.2 19.3,15.6 20.7,24.2 0.5,3.6 1.1,4.3 3.5,4.8 11.1,2.5 18.2,17.4 13.6,28.6 -1.3,3.4 -1.3,3.4 3.4,8 5.4,5.3 7.5,10.8 6.5,17.8 -0.8,6 -4.7,12.3 -9.1,14.6 -3.2,1.8 -3.5,2.2 -2.8,5 1.5,5.7 0.8,14.8 -1.5,19.1 -2.8,5.5 -8.2,10.1 -13.4,11.4 -6.6,1.7 -6.8,1.8 -6.8,3.8 0,3.6 -5.6,10.8 -10.2,13 -8.5,4.2 -20.3,3.7 -26.3,-1 l -2.5,-1.9 v -30.6 -30.5 l 4.3,0.7 c 8.3,1.3 12,5.8 13.1,15.7 0.7,6.8 1.5,7.8 6.3,7.8 3.5,0 4.6,-1.3 5.6,-6.8 0.8,-4.1 -2.4,-14.3 -5.9,-19 -3,-3.9 -9.9,-7.5 -17.6,-9.2 l -5.8,-1.3 v -35.8 c 0,-19.6 0.3,-36.5 0.6,-37.4 2,-5.1 15.1,-5.7 24.3,-1 z"
       id="path118"
       style="fill:#006680;stroke:none;stroke-width:0.1" /><path
       d="m 169.5,243.4 c -1.5,1.1 -1.7,2.2 -1.2,6.8 1.2,12.4 9.6,21.1 21.6,22.5 4.1,0.5 5.2,0.2 7,-1.6 1.1,-1.1 2.1,-2.5 2.1,-2.9 0,-1.7 -2.6,-4.2 -4.9,-4.7 -8.8,-1.7 -12.5,-4.9 -16.1,-13.8 -1.2,-3.2 -3.1,-6.2 -4.1,-6.7 -2.2,-1.3 -2.2,-1.3 -4.4,0.4 z"
       id="path120"
       style="fill:#006680;stroke:none;stroke-width:0.1" /><path
       d="m 244,210 c -1.8,1.8 -2,3.3 -2,16.3 0,16.8 0.3,17.6 7.5,18.4 9.6,1 13.5,5.2 13.5,14.7 0,6.5 3.3,9.3 7.4,6.3 1.2,-0.9 1.9,-3.2 2.3,-7.3 1,-10.6 -4.6,-19.4 -14.9,-23.7 l -3.6,-1.5 -0.4,-10.7 c -0.3,-9.8 -0.5,-10.8 -2.7,-12.6 -3,-2.4 -4.6,-2.4 -7.1,0.1 z"
       id="path122"
       style="fill:#006680;stroke:none;stroke-width:0.1" /></g><path
     d="m 360.39163,4.3817144 c -4.1,2.3 -18.5,11.0000006 -32,19.3000006 -13.49999,8.3 -33.89999,20.9 -45.49999,27.9 -11.5,7.00001 -22.1,13.70001 -23.4,14.90001 -1.3,1.1 -3.2,3.9 -4.2,6.1 -1.7,3.7 -1.9,7.8 -1.9,64.899995 0,59.4 0.1,61.1 2.1,65.2 2.4,5.1 4.1,6.4 22.9,17.9 8,4.8 19.5,11.8 25.5,15.5 59.69999,36.6 62.69999,38.3 68.99999,38.7 7.4,0.5 5.2,1.7 50,-25.8 19.3,-11.8 41.3,-25.3 49,-29.9 16.4,-9.8 18.2,-11.2 20.6,-16.5 1.7,-3.8 1.9,-7.8 1.9,-65 0,-57.199995 -0.2,-61.199995 -1.9,-64.999995 -1,-2.2 -2.9,-5 -4.2,-6.1 -1.3,-1.2 -14.8,-9.6 -29.9,-18.60001 -15.1,-9.1 -37.6,-22.7 -50,-30.3 -26.5,-16.2000006 -28.9,-17.40000059 -35.5,-17.50000059 -4.1,0 -6.4,0.8 -12.5,4.29999999 z m 41.6,54.1000106 c 23.1,4.2 38.4,13 38.4,22.2 0,17 -45.5,28.699995 -89.2,22.899995 -32.59999,-4.299995 -49.09999,-15.299995 -42.29999,-28.399995 3.7,-7.3 21.39999,-14.5 43.49999,-17.7 11.6,-1.6 37.9,-1.1 49.6,1 z m -69.6,53.999995 c 27.7,7.1 65.5,6.1 90.3,-2.3 4.8,-1.6 10.8,-4.1 13.3,-5.6 l 4.4,-2.6 v 16.6 16.5 l -3.6,4 c -12.6,13.9 -55.6,20.7 -91.4,14.5 -16.5,-2.9 -29.89999,-8.4 -35.09999,-14.2 l -2.9,-3.4 v -16.8 -16.8 l 7.8,3.8 c 4.2,2.1 11.99999,4.9 17.19999,6.3 z m -14.99999,45.5 c 7.99999,3.8 19.29999,6.7 32.49999,8.6 12.8,1.8 41.7,1.3 53.6,-0.9 11.4,-2.1 26.3,-7 32.2,-10.6 l 4.7,-2.9 v 20.6 20.7 l -4.9,4.7 c -9.5,9.1 -29.4,14.7 -56.1,15.6 -26.3,0.9 -50.3,-3.8 -63.19999,-12.3 -8.7,-5.7 -8.8,-6 -8.8,-29.5 0,-19.3 0.1,-20.1 1.8,-18.6 0.9,0.9 4.6,3 8.2,4.6 z"
     id="path124"
     style="fill:#006680;stroke:none;stroke-width:0.1"><desc
       id="desc1800">Data</desc></path><path
     d="m 617.44999,2.3367527 c -2.1,1.2 -22.4,13.5000003 -44.9,27.3000003 -22.6,13.9 -45.6,27.9 -51.1,31.2 -7.7,4.6 -10.5,6.8 -12.2,9.9 l -2.3,4 v 62.199997 c 0,41.5 0.4,63.1 1.1,65 2.4,6.3 4.3,7.6 64.9,44.3 51.5,31.2 46.4,28.5 54,28.5 h 6.6 l 19.9,-12.1 c 11,-6.6 26.5,-16.1 34.5,-21 8,-4.8 23.1,-14.1 33.5,-20.4 15,-9.2 19.6,-12.6 22,-15.9 l 3,-4.3 0.3,-61.6 c 0.3,-68.199997 0.4,-66.799997 -6.1,-72.899997 -1.7,-1.6 -8.1,-5.9 -14.2,-9.5 -6,-3.6 -18.2,-10.9 -27,-16.3 -41.5,-25.4 -62.2,-37.8000003 -65.3,-39.1000003 -5,-2.10000003 -12.1,-1.80000003 -16.7,0.7 z m -16.5,80.8000003 v 7.7 l -3.9,-0.4 c -4.3,-0.4 -10.4,1.2 -11.9,3.1 -0.5,0.7 -1.2,7.299997 -1.6,14.699997 -1.1,21.8 -1.8,23.9 -9.4,27.2 l -4.6,2.1 4.4,2.1 c 7.2,3.4 8.2,6.2 9.4,25.7 1.3,20.2 1.4,20.4 11.1,20.4 h 6.5 v 8.4 8.4 l -9.7,-0.6 c -11.3,-0.6 -13.7,-1.4 -18.8,-5.9 -5.7,-4.9 -6.5,-7.8 -6.6,-23.5 -0.1,-22.7 -1.3,-26.2 -9.1,-26.3 h -3.8 v -8.4 -8.3 l 4.1,-0.6 c 2.3,-0.3 4.9,-1.2 5.7,-2.1 2.1,-2.1 3.1,-9.2 3.2,-24.1 0,-15.099997 1.4,-18.699997 8.7,-23.899997 4.5,-3.1 12.8,-4.5 22.1,-3.7 l 4.2,0.3 z m 68.9,-5.5 c 4,2.1 7.9,6.1 9.4,9.6 0.5,1.4 1.3,10.2 1.7,19.699997 0.7,19.4 1.2,20.8 8.2,21.9 l 3.8,0.7 v 8.3 8.4 h -2.9 c -7.7,0 -8.3,1.7 -9.1,23.7 -0.6,18.1 -0.6,18.2 -3.5,22.5 -4.7,6.7 -10.6,9.2 -22.4,9.2 l -9.5,0.1 -0.1,-7.7 v -7.6 l 6.7,-0.4 c 10.3,-0.6 10.8,-1.4 10.8,-16.2 0,-17 1.2,-23.2 5.1,-27.2 1.8,-1.8 4.5,-3.6 6.1,-3.9 3.8,-0.9 3.6,-2.1 -0.5,-2.9 -3.8,-0.7 -7,-3.7 -8.7,-8.1 -0.7,-1.7 -1.5,-10 -1.8,-18.5 l -0.7,-15.499997 -3.5,-1.8 c -2.4,-1.3 -5,-1.7 -8.6,-1.4 l -5.1,0.3 0.1,-7.5 0.1,-7.6 3.5,-0.5 c 5.7,-0.8 17.2,0.5 20.9,2.4 z"
     id="path126"
     style="fill:#006680;stroke:none;stroke-width:0.1"><desc
       id="desc220">Code Editor</desc></path><g
     id="g330"
     transform="translate(514.91375,-395.07263)"
     style="fill:#006680"><desc
       id="desc1852">Settings</desc><path
       d="m 358,396.4 c -5.4,1.9 -102.2,60.9 -106.9,65 -1.3,1.1 -3.2,3.9 -4.2,6.1 -1.7,3.7 -1.9,7.8 -1.9,64.8 0,52.6 0.2,61.3 1.5,64.5 2,4.7 4.8,7.6 10.4,10.9 4.4,2.5 28.9,17.5 75.1,45.9 26.7,16.4 26.8,16.4 33,16.4 5.3,0 9.9,-1.9 17.5,-7 4.2,-2.8 82.6,-50.7 90.5,-55.3 5.5,-3.2 9.5,-7.2 10.9,-11 0.7,-1.9 1.1,-23.3 1.1,-64.3 0,-66 0.1,-65.3 -5.2,-70.1 C 478.5,461.1 461.5,450.4 442,438.7 422.5,426.9 399,412.8 389.9,407.3 369.6,395 365.6,393.6 358,396.4 Z m 22,65.6 3.1,10.1 5.2,2.3 5.2,2.3 8.8,-4 c 5.5,-2.4 9.7,-3.7 11,-3.3 1.2,0.3 5.5,3.9 9.5,7.9 l 7.4,7.4 -5.1,9.7 -5.1,9.6 2.4,4.7 c 2.4,4.7 2.5,4.8 10.2,6.7 13.6,3.3 12.4,1.6 12.4,16.4 v 12.9 l -7.2,1.7 c -11.7,2.8 -14.8,3.8 -14.8,5 0,0.6 -0.9,2.8 -2,4.9 l -2,3.8 5,9.5 c 2.9,5.7 4.7,10.1 4.2,10.9 -1.6,2.8 -13.5,15.5 -14.6,15.5 -0.6,0 -5.3,-2.1 -10.4,-4.7 l -9.4,-4.6 -5.3,2.6 -5.3,2.6 -3.2,9.5 -3.2,9.6 h -12.2 -12.3 l -1.3,-4.3 c -3.8,-13 -4.8,-14.4 -10.7,-17.2 l -5.6,-2.5 -9.3,4.9 -9.4,4.9 -8,-8.5 c -4.4,-4.6 -8,-9 -8,-9.6 0,-0.7 2.2,-5.5 4.8,-10.7 l 4.8,-9.4 -2.8,-4.3 c -2.6,-3.8 -6.9,-6.3 -11.1,-6.3 -0.5,0 -3.3,-0.7 -6.3,-1.6 l -5.5,-1.6 0.3,-13.1 0.3,-13.1 10.1,-2.5 10,-2.4 2.2,-5.4 2.2,-5.5 -5.1,-9 -5.1,-9.1 7.9,-7.9 c 9,-9.1 8.1,-8.9 21.1,-3.5 l 8.4,3.5 4.9,-2.2 5,-2.1 3.1,-10.3 3.2,-10.2 h 12.2 12.2 z"
       id="path128"
       style="fill:#006680;stroke:none;stroke-width:0.1" /><path
       d="m 354.3,500.4 c -16.8,5.5 -26.1,22 -21.9,38.8 5,19.3 26.7,30 44.9,22 6.2,-2.7 13.3,-9.5 16.5,-15.7 3.7,-7.2 4.2,-17.9 1.2,-25.8 -2.6,-7 -9.5,-14.3 -16.5,-17.6 -6.1,-2.9 -17.9,-3.8 -24.2,-1.7 z"
       id="path130"
       style="fill:#006680;stroke:none;stroke-width:0.1" /></g><g
     id="g336"
     transform="translate(-538.16572,-108.89897)"
     style="fill:#006680"><desc
       id="desc1854">Documentation</desc><path
       d="m 654.1,396.1 c -1.8,0.6 -18.3,10.1 -36.5,21.1 -18.2,11.1 -42,25.6 -53,32.2 -15.7,9.5 -20.4,12.8 -22.5,16 l -2.6,4 -0.3,61.5 c -0.3,69.6 -0.5,67.3 7.1,73.4 2.3,1.8 10.3,6.9 17.7,11.4 7.4,4.4 19.6,11.8 27,16.3 7.4,4.6 21.8,13.3 32,19.5 10.2,6.1 20.8,12.6 23.6,14.4 5.7,3.6 14.2,5.1 19.2,3.3 1.7,-0.6 11.3,-6.2 21.4,-12.4 26.9,-16.8 65.9,-40.7 77.3,-47.6 8.2,-4.9 10.4,-6.7 12.2,-10.2 l 2.3,-4.3 v -62.6 -62.6 l -2.3,-3.9 c -1.9,-3.4 -5.8,-6.2 -27.2,-19.1 -13.8,-8.4 -36.2,-22.1 -50,-30.5 -13.7,-8.4 -26.8,-16.4 -29.1,-17.7 -4.8,-2.7 -11.5,-3.6 -16.3,-2.2 z m 57.1,60.9 c 2,0.6 5,2.6 6.7,4.6 l 3.1,3.5 v 62.3 c 0,68.8 0.1,68.1 -6.3,74.6 -5.9,6.1 -5,6 -58.2,6 -41.2,0 -49,-0.2 -51.5,-1.5 -6.3,-3.3 -6,0.7 -6,-73.7 v -67.7 l 3.1,-3.6 c 1.7,-1.9 4.5,-3.9 6.3,-4.4 4.4,-1.3 98.2,-1.4 102.8,-0.1 z"
       id="path132"
       style="fill:#006680;stroke:none;stroke-width:0.1" /><path
       d="m 618.7,483.7 c -0.4,0.3 -0.7,3.2 -0.7,6.4 0,5.2 0.2,5.9 2.3,6.4 1.2,0.3 19.5,0.4 40.7,0.3 l 38.5,-0.3 0.5,-5.8 c 0.3,-3.2 0.1,-6.2 -0.4,-6.7 -1.1,-1.1 -79.9,-1.4 -80.9,-0.3 z"
       id="path134"
       style="fill:#006680;stroke:none;stroke-width:0.1" /><path
       d="m 618.7,517.7 c -0.4,0.3 -0.7,3.2 -0.7,6.4 0,4.3 0.4,5.8 1.6,6.3 0.9,0.3 14.5,0.6 30.3,0.6 21,0 29,-0.3 29.9,-1.2 1.6,-1.6 1.6,-10 0,-11.6 -0.9,-0.9 -9.1,-1.2 -30.8,-1.2 -16.3,0 -30,0.3 -30.3,0.7 z"
       id="path136"
       style="fill:#006680;stroke:none;stroke-width:0.1" /><path
       d="m 619.2,551.9 c -0.9,0.5 -1.2,2.6 -1,6.7 l 0.3,5.9 H 659 699.5 V 558 551.5 L 660,551.3 c -21.7,-0.2 -40.1,0.1 -40.8,0.6 z"
       id="path138"
       style="fill:#006680;stroke:none;stroke-width:0.1" /></g><g
     id="g340"
     transform="translate(-138.5513,-372.43132)"
     style="fill:#006680"><desc
       id="desc1856">Observability</desc><path
       d="m 506.9,659.9 c -1.5,0.5 -8.9,4.7 -16.5,9.4 -7.7,4.6 -21.5,13.1 -30.9,18.7 -65.2,39.3 -62.5,37.5 -65.2,43 l -2.3,4.4 v 60.8 c 0,66.1 -0.1,64.7 5.6,69.9 1.6,1.5 10.3,7.2 19.4,12.6 29.5,17.9 57.3,34.8 68.5,41.8 20.3,12.7 24.4,14.1 33.2,11.6 1.8,-0.5 15.3,-8.4 30,-17.4 14.8,-9 38.1,-23.3 51.8,-31.7 13.8,-8.4 25.8,-16 26.9,-16.9 1,-0.9 2.7,-3.3 3.7,-5.4 1.9,-3.6 1.9,-6.2 1.7,-65.5 l -0.3,-61.8 -2.6,-4 c -2.2,-3.3 -10.3,-8.6 -52.3,-33.9 -27.3,-16.5 -52.1,-31.3 -55,-32.8 -5.7,-3.1 -11.6,-4.1 -15.7,-2.8 z M 533,736 c 9.8,2.9 21.7,8.8 29.9,15 14.6,10.8 35.1,34.8 35.1,41 0,3.4 -7.3,14.7 -16,24.5 -13.4,15.2 -28.9,26.3 -44.7,31.8 -7.6,2.6 -10.6,3.1 -21.8,3.5 -11,0.4 -14.4,0.1 -21.5,-1.7 -14,-3.4 -29.3,-11.8 -40.6,-22.2 -12.1,-11 -27.4,-30.9 -27.4,-35.6 0,-5.7 20.6,-30.3 33.8,-40.3 12,-9 26.7,-15.6 41.2,-18.4 6.1,-1.2 24.7,0.2 32,2.4 z"
       id="path140"
       style="fill:#006680;stroke:none;stroke-width:0.1" /><path
       d="m 504.4,757 c -10.6,2.1 -21,10.4 -26.1,20.8 -2.4,4.9 -2.7,6.9 -2.8,14.7 0,8.2 0.3,9.6 3.2,15.6 7.7,15.7 23.8,23.3 41.8,19.9 16.4,-3.1 28.7,-18.1 28.6,-34.8 -0.1,-10.8 -2.6,-17.5 -9.3,-24.8 -9,-9.7 -22.2,-14 -35.4,-11.4 z"
       id="path142"
       style="fill:#006680;stroke:none;stroke-width:0.1" /></g><g
     transform="matrix(0.04164704,0,0,-0.04264483,413.35753,642.39192)"
     fill="#000000"
     stroke="none"
     id="g394"
     style="fill:#006680"><desc
       id="desc1858">DevOps</desc><path
       d="m 4983,8330 c -29,-10 -427,-245 -885,-523 -458,-277 -977,-591 -1153,-697 -555,-334 -560,-337 -614,-395 -29,-30 -64,-81 -79,-112 l -27,-58 V 5115 3685 l 33,-67 c 35,-72 118,-157 188,-194 70,-36 912,-537 1384,-822 768,-464 1052,-633 1120,-665 55,-27 79,-32 160,-35 81,-3 104,0 160,20 61,23 476,268 1785,1057 700,422 796,481 832,512 54,46 102,118 123,185 20,65 20,88 20,1438 0,887 -4,1386 -11,1415 -16,69 -59,148 -109,199 -35,35 -252,171 -836,522 -726,436 -1571,945 -1704,1027 -117,72 -276,94 -387,53 z m 503,-1434 c 645,-134 1182,-637 1347,-1262 l 24,-89 159,-5 c 173,-5 194,-11 220,-62 33,-63 20,-88 -174,-351 l -180,-243 -17,-99 c -62,-364 -224,-675 -490,-940 -157,-157 -274,-242 -460,-335 -369,-184 -756,-234 -1163,-150 -602,124 -1123,596 -1303,1179 l -34,111 h -155 c -179,0 -211,10 -245,72 -19,35 -19,40 -4,80 8,24 92,147 185,273 l 170,230 12,91 c 34,262 146,539 312,776 125,178 355,393 535,500 221,131 469,216 720,247 138,17 402,5 541,-23 z"
       id="path390"
       style="fill:#006680" /><path
       d="m 5000,6449 c -517,-64 -935,-389 -1105,-859 -32,-89 -67,-249 -58,-264 4,-6 89,-125 190,-264 163,-226 183,-258 183,-293 0,-31 -7,-47 -34,-77 l -34,-37 -127,-3 c -145,-4 -138,8 -79,-121 54,-118 160,-267 259,-366 399,-400 1011,-498 1516,-244 350,176 611,507 694,881 l 17,77 -164,228 c -90,125 -172,239 -181,253 -10,14 -17,44 -17,68 0,37 6,50 34,78 l 34,34 h 126 c 69,0 126,4 126,8 0,20 -40,123 -75,192 -63,125 -133,220 -244,330 -195,194 -420,313 -689,364 -106,20 -277,27 -372,15 z"
       id="path392"
       style="fill:#006680" /></g><path
     d="m 873.67968,287.25772 c -1.90063,0.5413 -4.40946,1.54657 -5.47381,2.24253 -1.06435,0.69596 -10.94762,6.65026 -21.89523,13.2232 -69.10684,41.06151 -80.20651,47.7891 -82.48727,50.41827 -4.94163,5.645 -4.78958,3.47979 -4.78958,70.9877 0,57.91916 0.076,61.32162 1.44448,64.33744 1.74858,3.94376 5.92996,8.1195 11.47979,11.44464 2.28076,1.39191 13.45645,8.1195 24.70817,14.92442 11.32774,6.80492 27.52109,16.54833 36.11193,21.65202 8.59084,5.1037 20.90691,12.44992 27.44507,16.31635 13.53248,8.11951 17.86591,9.51142 24.4801,7.96485 2.7369,-0.61863 11.17569,-5.33568 27.90122,-15.46573 13.15234,-7.96485 34.21127,-20.72408 46.75547,-28.30228 12.5441,-7.57821 25.6204,-15.46573 29.1176,-17.55361 3.4211,-2.08787 7.0703,-4.94903 8.1347,-6.34095 4.33338,-5.79964 4.18138,-2.86116 4.18138,-69.20913 0,-59.23375 -0.076,-61.24429 -1.52048,-65.26538 -0.8363,-2.24253 -2.4328,-5.02636 -3.6492,-6.10896 -1.1404,-1.08261 -11.0997,-7.50088 -22.1994,-14.15115 -11.0996,-6.72759 -22.5034,-13.68717 -25.4684,-15.46573 -27.90121,-17.08963 -59.52766,-35.1072 -62.87277,-35.95782 -4.25741,-0.92794 -6.99431,-0.92794 -11.40377,0.30932 z m 67.73839,55.21265 c 5.39775,4.02109 6.84225,10.43937 3.80126,16.62566 -3.95331,7.81019 -39.76114,71.45167 -40.97755,72.68893 -0.3041,0.38664 -5.85393,-3.47979 -12.24004,-8.50615 -6.46214,-5.10369 -15.7372,-12.29526 -20.60281,-16.00703 -4.94164,-3.71178 -8.97097,-6.88225 -8.97097,-6.95958 0,-0.15466 7.98264,-7.19157 17.71386,-15.62039 9.65519,-8.42882 23.64381,-20.8014 30.94222,-27.37434 14.29273,-12.91388 17.18168,-15.23374 20.37474,-16.31634 2.96498,-0.92795 7.67854,-0.23199 9.95929,1.46924 z m -86.59262,73.38489 c 1.06435,0.69595 9.80724,7.26889 19.46243,14.69244 l 17.56181,13.37786 -0.98833,6.03163 c -0.53218,3.2478 -1.5205,10.98067 -2.28075,17.08963 -0.9123,7.88752 -1.67256,11.52197 -2.58486,12.44991 -0.68422,0.69596 -3.57318,2.01055 -6.46213,3.01582 -2.96498,1.00527 -15.20503,5.64499 -27.36905,10.28471 -20.83088,7.96485 -22.19934,8.42882 -24.86022,7.57821 -1.59652,-0.46397 -2.88895,-1.00528 -2.88895,-1.15993 0,-0.23199 2.66088,-3.78911 5.92996,-7.96485 3.19305,-4.09842 8.51481,-11.21266 11.70787,-15.69772 5.54983,-7.81019 6.08201,-8.27416 9.04699,-8.66081 3.57318,-0.46397 6.46214,-2.86116 7.98264,-6.4956 1.90063,-4.40774 1.36845,-7.03691 -1.90063,-10.36204 -2.58485,-2.7065 -3.34511,-3.01582 -6.61419,-3.01582 -2.4328,0.0773 -4.2574,0.5413 -5.39778,1.46925 -2.66088,2.24253 -4.78958,6.41827 -4.78958,9.43409 0,2.47452 -1.59653,4.94903 -11.7839,18.55888 -6.46213,8.6608 -12.24004,15.77504 -12.77222,15.77504 -0.45615,0 -1.29243,-0.85062 -1.8246,-1.93322 -0.98833,-2.1652 0.22807,-14.22847 3.87728,-36.7311 0.98833,-6.41828 2.28075,-15.00176 2.81293,-19.17751 0.6082,-4.94903 1.36845,-7.88752 2.1287,-8.50615 0.68423,-0.61863 4.33343,-2.24253 8.05867,-3.63445 3.80125,-1.46924 9.42711,-3.7891 12.54414,-5.18101 6.53816,-2.78384 8.81892,-3.09315 11.40377,-1.23726 z m 93.13077,84.13356 c 2.2808,2.31986 2.3568,4.17575 0.3041,6.88225 l -1.5205,2.01055 h -49.9485 c -43.2583,0 -49.72043,-0.15466 -48.35198,-1.0826 0.83628,-0.61863 5.16971,-3.01582 9.65519,-5.41301 l 8.13469,-4.3304 h 39.91319 39.98922 z"
     id="path672"
     style="fill:#006680;stroke:none;stroke-width:0.0766741"><desc
       id="desc1860">Design</desc></path><path
     d="m 113.65843,573.41222 c -1.67255,0.54131 -12.77224,6.88239 -24.708206,14.15143 -21.28708,12.83681 -55.19434,33.25199 -73.59246,44.23288 -5.24574,3.17054 -10.1113602,6.72773 -11.1757202,8.11968 -4.33344,5.79976 -4.18139000149,2.86122 -4.18139000149,69.21054 0,59.23495 0.0760000015,61.24554 1.52051000149,65.26671 1.97666,5.49045 4.40947,7.73302 13.7605702,13.37813 21.21106,12.68216 61.65649,36.80918 72.14798,43.15026 6.46215,3.86651 14.596846,8.81565 18.094016,10.98089 12.69622,8.11968 18.3221,7.73303 34.36343,-2.16524 3.11704,-1.93326 13.38045,-8.11968 22.80755,-13.76478 43.33448,-25.98296 71.00768,-43.15027 73.13638,-45.23818 1.2924,-1.31461 3.1931,-4.0985 4.1814,-6.26375 l 1.7486,-4.02117 -0.1521,-62.09617 c -0.228,-62.01883 -0.228,-62.17349 -1.9006,-65.2667 -2.3568,-4.56249 -4.7896,-6.49574 -16.1934,-13.14614 -5.6259,-3.3252 -17.2577,-10.28492 -25.8486,-15.46605 -18.7782,-11.36754 -63.86125,-37.96913 -67.89059,-40.05705 -3.64921,-1.93326 -11.93598,-2.47457 -16.11737,-1.00529 z m 31.8546,59.6216 c 14.4448,2.70656 25.39248,7.34637 31.85466,13.37813 4.3334,4.0985 5.8539,7.19171 5.8539,11.75419 0,10.59424 -13.83658,20.02853 -36.18805,24.74567 -31.09435,6.57307 -67.358406,0.85063 -82.563456,-12.99148 -4.63754,-4.33049 -6.006,-6.95972 -6.08202,-11.83152 -0.076,-11.90885 16.42146,-22.19377 41.661846,-25.82829 9.95931,-1.46928 36.03599,-1.0053 45.46312,0.7733 z m -54.586156,82.89799 15.281076,15.8527 -4.25741,-0.54131 c -15.661206,-1.85593 -33.451116,-9.66628 -39.913266,-17.47663 -4.40947,-5.25846 -5.01767,-7.73302 -5.01767,-20.33785 v -11.5222 l 9.35111,9.04763 c 5.09369,5.02647 16.11736,16.23935 24.55616,24.97766 z m 92.294716,-7.96501 c -2.6609,9.27963 -22.57953,20.02853 -41.4338,22.5031 -2.05268,0.30932 -4.33344,0.69597 -5.01766,0.85063 -0.68423,0.15466 9.57918,-10.59424 22.80758,-24.0497 l 24.02398,-24.35902 0.2281,11.05822 c 0.1521,6.72773 -0.076,12.14085 -0.6082,13.99677 z m -78.30607,-6.49574 c 11.0997,1.31462 31.01833,0.69597 39.53316,-1.31461 1.36845,-0.30932 -1.59653,3.17054 -10.64354,12.45016 -6.9183,7.03705 -12.69622,12.83682 -12.9243,12.83682 -0.22807,0 -6.23408,-5.72244 -13.30443,-12.75949 -9.275076,-9.12496 -12.392116,-12.68215 -11.023666,-12.37283 1.06436,0.23199 4.789596,0.69597 8.362776,1.15995 z m -39.989286,34.10263 c 7.5265,5.02646 24.48014,10.67157 32.23472,10.7489 1.29243,0 2.43281,0.23199 2.43281,0.46398 0,0.46398 -2.58486,3.24787 -16.42146,18.01794 l -5.47382,5.79977 -4.25742,-2.16525 c -6.08202,-3.01587 -11.47982,-7.57836 -13.91262,-11.83152 -2.05269,-3.55719 -2.12871,-4.17583 -2.35679,-15.6207 l -0.3041,-11.83153 1.82461,1.70127 c 0.9123,0.92796 3.72524,3.09321 6.23407,4.71714 z m 118.675456,15.07939 c -0.9123,6.72773 -6.4622,12.75949 -15.96534,17.3993 l -4.56152,2.24258 -11.17567,-11.36754 -11.25175,-11.44488 8.21073,-1.62393 c 4.4855,-0.92796 11.17572,-2.78389 14.901,-4.17583 6.38612,-2.39724 16.49745,-8.50633 18.77825,-11.29021 0.9123,-1.15996 1.0643,-0.0773 1.2924,7.88768 0.1521,5.02646 0,10.67157 -0.2281,12.37283 z m -44.39876,16.39401 c 5.77793,5.64511 7.67856,7.96501 6.84228,8.27433 -8.51483,2.62923 -33.37511,3.09321 -44.85492,0.77331 l -7.222396,-1.39195 13.152366,-13.14614 13.15238,-13.14613 5.3978,5.33578 c 3.04101,2.93855 9.12303,8.89298 13.53249,13.3008 z"
     id="path674"
     style="fill:#006680;stroke:none;stroke-width:0.076675"><desc
       id="desc1862">Vector</desc></path><g
     id="g707"
     transform="matrix(0.76025346,0,0,0.7741323,-4.185255,-209.037)"><desc
       id="desc1864">Search</desc><path
       d="m 488.20405,1010.7447 c -1.9,0.7 -8.7,4.5 -15,8.4 -6.3,3.9 -15.7,9.5 -20.9,12.5 -5.2,3 -25.9,15.1 -46,27 -20.1,11.8 -41.3,24.3 -47.3,27.7 -6.2,3.7 -12.2,8 -14.1,10.3 -6.8,7.9 -6.6,4.7 -6.6,91.3 0,56.7 0.3,79.1 1.2,81.6 3.1,9.2 3.9,9.8 51.4,37.8 47.1,27.8 79.2,46.7 90.9,53.5 6.7,4 7.2,4.1 16,4.1 h 9.1 l 17,-10.1 c 9.3,-5.6 20.7,-12.3 25.4,-14.9 4.7,-2.6 15.5,-8.9 24,-14 82.8,-49.2 77.7,-45.7 81.5,-54.8 1.3,-3.2 1.5,-14 1.5,-83.4 v -79.8 l -2.4,-5.1 c -3.3,-7.2 -6.9,-10.1 -24.6,-20.5 -49.9,-29.4 -117.1,-68.6 -120.5,-70.3 -4.9,-2.5 -15.5,-3.2 -20.6,-1.3 z m 19.9,69.3 c 23.5,4.8 43.5,20.2 54.1,41.7 2.8,5.6 5.8,13.3 6.8,17.2 2.3,9.5 2.3,29.5 0,38.8 -2.2,8.9 -7.7,20.7 -12.7,27.3 l -3.9,5.2 18.6,23.4 c 10.2,12.8 19.4,24.6 20.4,26.3 3.8,6.1 1.1,18.1 -4.8,22.1 -6,3.9 -15.4,3.5 -20.2,-0.9 -1.3,-1.2 -11.1,-12.9 -21.7,-25.9 -10.7,-13.1 -19.6,-23.8 -19.9,-23.8 -0.2,0 -4.6,1.4 -9.7,3.2 -8.6,2.9 -10.3,3.2 -22.3,3.2 -15.2,0 -22.8,-1.6 -35.1,-7.4 -16.4,-7.9 -28.9,-20.2 -36.8,-36.5 -6.2,-12.7 -8.1,-21.3 -8,-36 0.2,-14.3 2.4,-24 8.4,-36 10.7,-21.5 32,-37.7 56.1,-42.4 7.3,-1.4 22.5,-1.2 30.7,0.5 z"
       id="path676"
       style="fill:#006680;stroke:none;stroke-width:0.1" /><path
       d="m 480.30405,1106.0447 c -18.1,3.9 -32.7,17.1 -39.1,35.4 -3.3,9.3 -3.3,23.8 0,33.3 10.6,31 45.2,45.3 75.1,31 3.4,-1.6 8.4,-5.5 13.1,-10.2 11.3,-11.3 15.9,-22.2 15.9,-37.7 0,-14.5 -5.3,-27 -16,-37.5 -7.8,-7.7 -16.1,-12.2 -26.5,-14.4 -8.5,-1.8 -14,-1.8 -22.5,0.1 z"
       id="path678"
       style="fill:#006680;stroke:none;stroke-width:0.1" /></g><g
     id="g711"
     transform="matrix(0.76051951,0,0,0.77251452,-93.583978,-207.63915)"><desc
       id="desc1866">Artifacts</desc><path
       d="m 939.10405,1010.8447 c -2.6,0.7 -9.3,4.1 -15,7.6 -12.7,7.8 -66.8,39.7 -99.8,59 -25.7,14.9 -29.8,18 -33.3,24.5 -2.2,4 -2.2,4.1 -2.5,84.6 -0.2,77.1 -0.2,80.8 1.6,85 1.1,2.4 3.2,5.8 4.8,7.4 1.6,1.7 13.9,9.5 27.4,17.4 13.5,7.9 43.4,25.7 66.4,39.5 54.5,32.7 49.5,30.1 58.6,30.1 h 7.5 l 16.5,-9.4 c 9.1,-5.2 20.5,-11.9 25.3,-14.9 4.89995,-3 20.39995,-12.3 34.50005,-20.7 47,-27.9 64.7,-38.7 67.6,-41.4 1.6,-1.4 3.9,-4.9 5.2,-7.6 l 2.4,-5 v -78.6 c 0,-87.5 0.3,-84.1 -6.8,-91.8 -2.6,-2.8 -16.2,-11.4 -44.7,-28.2 -65.50005,-38.6 -90.50005,-53 -95.90005,-55.4 -6.6,-3 -13.9,-3.8 -19.8,-2.1 z m 52.1,88.2 c 21.50005,11.5 39.10005,21.1 39.10005,21.4 0,0.3 -2.8,2 -6.2,3.8 -3.5,1.7 -19.1001,10.2 -34.80005,18.7 -15.7,8.6 -31.7,17.2 -35.6,19.2 l -7.1,3.6 -34.9,-18.8 c -19.2,-10.3 -38,-20.5 -41.7,-22.7 l -6.8,-4 27.8,-15 c 50.2,-27.1 52.1,-28.1 56.9,-27.5 3,0.3 15.5,6.4 43.3,21.3 z m -96.9,62.1 c 21.2,11.3 39.3,21.3 40.3,22.2 1.6,1.6 1.7,5.2 1.5,55.3 l -0.3,53.6 -28,-15.4 c -15.4,-8.5 -34.4,-18.9 -42.3,-23.1 -10.5,-5.6 -14.7,-8.4 -15.8,-10.5 -1.2,-2.4 -1.4,-10.4 -1.2,-51.9 0.3,-47.5 0.4,-49.1 2.3,-50.5 1.1,-0.8 2.6,-1.2 3.5,-0.9 0.8,0.3 18.8,9.9 40,21.2 z m 148.00005,-19.7 c 1.9,1.9 2,3.3 2,50.5 0,39.8 -0.3,49.1 -1.4,51.3 -1,2 -6.5,5.4 -19.8,12.6 -10,5.5 -29.00005,15.9 -42.00005,23.2 l -23.8,13.2 v -53.6 c 0,-29.5 0.4,-54.2 0.8,-54.8 0.7,-1.2 80.10005,-44.4 81.50005,-44.4 0.4,0 1.6,0.9 2.7,2 z"
       id="path680"
       style="fill:#006680;stroke:none;stroke-width:0.1" /><path
       d="m 990.50405,1200.6447 c -0.8,0.8 -1.2,5.3 -1.2,13.5 v 12.2 l -7.7,0.3 c -6.4,0.2 -7.8,0.6 -7.8,1.9 0,1.7 22.6,26.3 25.6,27.9 1.39995,0.8 3.99995,-1.6 13.99995,-12.6 6.8001,-7.4 12.6001,-14 12.8001,-14.6 0.6,-1.9 -2.3001,-2.8 -9.1,-2.8 h -6.8001 v -12.3 c 0,-8.2 -0.4,-12.7 -1.1999,-13.5 -1.6001,-1.6 -17.00005,-1.6 -18.60005,0 z"
       id="path682"
       style="fill:#006680;stroke:none;stroke-width:0.1" /></g><g
     transform="matrix(0.03647439,0,0,-0.03717362,693.31524,899.3091)"
     fill="#000000"
     stroke="none"
     id="g1576"
     style="fill:#006680"><desc
       id="desc1868">Dashboard</desc><path
       d="m 4984,8767 c -85,-31 -2973,-1730 -3036,-1786 -58,-52 -91,-101 -122,-180 l -21,-56 -3,-1614 c -1,-1057 1,-1634 8,-1670 14,-78 71,-188 122,-238 25,-25 204,-137 438,-276 217,-129 688,-407 1045,-619 358,-212 848,-503 1090,-646 487,-288 510,-299 640,-289 39,3 90,13 115,23 25,10 671,387 1435,839 765,452 1424,841 1465,865 147,84 213,158 250,279 20,62 20,98 20,1696 0,1572 -1,1636 -19,1694 -24,76 -59,136 -108,183 -33,32 -437,273 -1623,970 -173,101 -441,259 -595,350 -154,91 -395,233 -535,316 -141,82 -280,157 -310,166 -77,23 -182,20 -256,-7 z m 223,-1163 c 39,-29 63,-65 74,-110 5,-21 9,-230 8,-464 v -425 l 593,-5 593,-5 52,-27 c 68,-36 114,-77 152,-136 59,-92 61,-115 61,-664 v -497 l 398,-3 397,-3 33,-23 c 98,-70 85,-234 -22,-283 -38,-17 -72,-19 -423,-19 h -382 l -3,-547 c -3,-547 -3,-548 -26,-598 -35,-75 -70,-122 -122,-160 -98,-72 -71,-69 -717,-75 l -583,-5 -2,-440 c -3,-395 -5,-443 -20,-472 -52,-95 -183,-117 -262,-45 -56,52 -56,54 -56,526 v 435 l -592,3 -593,3 -58,29 c -71,36 -140,108 -175,184 l -27,57 -3,553 -3,552 h -382 c -377,0 -383,0 -427,23 -59,29 -85,75 -85,149 0,62 17,94 69,132 26,20 41,21 426,24 l 399,3 3,532 3,532 27,55 c 39,80 88,132 160,171 l 63,34 597,3 597,3 3,463 3,463 29,37 c 16,21 43,44 60,52 42,20 129,13 163,-12 z"
       id="path1572"
       style="fill:#006680" /><path
       d="m 5084,6180 c -1198,-5 -1119,-1 -1150,-61 -12,-24 -14,-181 -14,-1041 0,-995 0,-1014 20,-1046 11,-18 31,-37 45,-42 15,-6 464,-10 1132,-11 1232,-2 1153,-7 1187,65 14,31 16,129 16,1035 0,843 -2,1007 -14,1036 -15,34 -50,59 -96,66 -14,2 -520,2 -1126,-1 z"
       id="path1574"
       style="fill:#006680" /></g><g
     transform="matrix(0.06089656,0,0,-0.06089656,190.68074,1390.9261)"
     fill="#000000"
     stroke="none"
     id="g1713"
     style="fill:#006680"><desc
       id="desc1870">Logo</desc><path
       d="m 5022,8780 c -41,-19 -261,-159 -1332,-848 -294,-190 -690,-444 -880,-564 -360,-229 -421,-277 -440,-348 -7,-25 -9,-547 -8,-1587 l 3,-1548 32,-47 c 21,-30 49,-54 80,-70 l 48,-23 615,-3 615,-2 44,22 c 62,32 84,66 88,135 3,44 -1,67 -15,93 -41,74 -6,70 -597,71 -521,1 -557,3 -577,33 -4,6 -8,639 -8,1407 v 1396 l 23,20 c 12,11 119,82 237,158 118,76 631,406 1140,733 509,327 945,606 969,618 56,30 65,30 126,-4 58,-33 965,-613 2186,-1399 126,-81 178,-120 182,-136 2,-12 4,-645 3,-1405 l -1,-1384 -24,-19 c -23,-19 -42,-20 -501,-19 -527,2 -515,3 -561,-61 -12,-18 -24,-52 -27,-79 -6,-66 18,-114 77,-148 l 46,-27 544,-3 c 365,-2 562,1 597,8 66,14 127,58 154,109 20,40 20,53 20,1574 0,1705 4,1597 -68,1675 -20,22 -118,92 -217,155 -247,157 -1474,945 -1954,1255 -216,140 -408,260 -427,268 -48,20 -141,17 -192,-6 z"
       id="path1689"
       style="fill:#006680" /><path
       d="m 5048,7696 c -56,-20 -1333,-858 -1483,-973 -27,-21 -63,-58 -80,-81 l -30,-44 -3,-780 c -3,-861 -4,-846 58,-921 40,-48 179,-144 919,-636 332,-220 621,-406 643,-413 29,-9 51,-8 95,2 48,10 133,63 597,374 764,511 934,632 973,690 18,26 37,64 43,84 14,50 14,1543 0,1593 -20,72 -80,122 -419,346 -652,432 -1137,746 -1175,759 -48,17 -90,17 -138,0 z m 115,-567 c 52,-24 57,-48 57,-298 v -231 h 288 c 256,0 291,-2 327,-19 51,-23 101,-79 114,-128 7,-22 11,-150 11,-305 v -268 h 209 c 242,0 249,-2 258,-82 5,-42 3,-50 -25,-78 l -30,-30 h -206 -206 v -269 c 0,-294 -5,-329 -58,-385 -59,-62 -77,-66 -394,-66 h -288 v -244 -244 l -29,-31 c -45,-48 -120,-39 -154,19 -15,24 -17,62 -17,264 v 236 h -285 c -235,0 -292,3 -323,15 -47,20 -79,50 -103,97 -17,34 -19,62 -19,323 v 285 h -211 -211 l -29,29 c -20,20 -29,40 -29,61 0,37 23,85 45,94 9,3 111,6 226,6 h 209 v 278 c 0,305 4,326 66,384 59,55 79,58 384,58 h 280 v 236 236 l 34,34 c 36,36 67,42 109,23 z"
       id="path1691"
       style="fill:#006680" /><path
       d="m 4526,6348 c -14,-20 -16,-91 -16,-570 0,-535 0,-548 20,-568 20,-20 33,-20 588,-20 497,0 570,2 590,16 l 22,15 v 559 c 0,494 -2,560 -16,574 -14,14 -81,16 -594,16 h -579 z"
       id="path1693"
       style="fill:#006680" /><path
       d="m 2212,3172 c -10,-7 -12,-143 -10,-648 l 3,-639 99,-3 c 64,-2 103,1 112,9 11,9 14,63 14,283 0,302 5,324 69,379 75,63 213,63 273,0 49,-51 52,-70 58,-378 l 5,-290 h 105 105 v 335 335 l -33,67 c -71,145 -219,213 -387,178 -78,-16 -124,-40 -163,-85 l -32,-36 v 240 c 0,227 -1,241 -19,251 -23,12 -180,13 -199,2 z"
       id="path1695"
       style="fill:#006680" /><path
       d="m 3283,3160 c -41,-25 -63,-68 -63,-122 0,-79 58,-138 135,-138 131,0 189,161 90,249 -29,25 -44,31 -83,31 -29,0 -59,-8 -79,-20 z"
       id="path1697"
       style="fill:#006680" /><path
       d="m 4772,3168 c -9,-9 -12,-166 -12,-645 v -633 l 23,-5 c 12,-3 63,-5 112,-3 l 90,3 5,200 5,199 179,-194 c 98,-107 185,-199 192,-203 7,-4 69,-6 136,-5 109,3 123,5 123,20 0,10 -64,88 -141,175 -78,87 -169,189 -202,227 l -61,69 171,179 c 94,98 175,181 179,184 5,3 9,14 9,24 0,27 -33,33 -146,28 l -96,-4 -67,-70 c -36,-38 -115,-120 -174,-183 l -107,-115 v 370 c 0,274 -3,373 -12,382 -16,16 -190,16 -206,0 z"
       id="path1699"
       style="fill:#006680" /><path
       d="m 6781,3166 c -8,-9 -10,-187 -9,-647 l 3,-634 h 110 110 l 5,53 5,52 26,-32 c 14,-18 51,-46 80,-61 158,-80 351,-47 480,82 92,93 133,208 132,371 -1,240 -131,407 -351,450 -127,25 -250,-2 -328,-73 l -39,-35 2,228 c 3,196 1,231 -13,244 -21,21 -196,23 -213,2 z m 563,-580 c 53,-22 113,-83 133,-134 26,-67 23,-172 -6,-239 -58,-132 -214,-188 -340,-123 -81,41 -121,122 -121,242 0,168 88,267 238,268 34,0 78,-6 96,-14 z"
       id="path1701"
       style="fill:#006680" /><path
       d="m 1588,3039 c -16,-9 -18,-26 -18,-132 v -122 l -55,3 c -31,2 -67,1 -81,-2 -24,-6 -25,-8 -22,-94 l 3,-87 77,-3 77,-3 3,-272 3,-272 27,-45 c 33,-56 70,-92 128,-122 39,-20 59,-23 145,-23 68,0 109,5 130,15 29,15 30,17 30,90 v 75 l -93,5 c -87,5 -95,7 -118,33 -24,28 -24,29 -24,272 v 244 l 113,3 112,3 3,87 c 3,104 7,101 -137,96 l -91,-3 v 123 c 0,122 0,123 -26,132 -33,13 -164,12 -186,-1 z"
       id="path1703"
       style="fill:#006680" /><path
       d="m 4091,2795 c -68,-19 -109,-44 -155,-95 l -36,-40 v 55 c 0,45 -4,56 -22,66 -22,12 -165,8 -186,-5 -17,-10 -17,-867 0,-884 16,-16 200,-16 216,0 9,9 12,83 12,274 0,168 4,273 11,295 30,89 102,139 199,138 94,0 155,-47 180,-138 5,-20 10,-153 10,-297 0,-212 3,-264 14,-273 9,-8 48,-11 112,-9 l 99,3 v 330 330 l -31,66 c -59,125 -156,190 -294,196 -46,2 -96,-3 -129,-12 z"
       id="path1705"
       style="fill:#006680" /><path
       d="m 8176,2795 c -226,-57 -357,-249 -343,-500 14,-243 161,-400 410,-436 112,-16 247,5 340,52 45,23 117,86 117,103 0,22 -71,117 -96,128 -21,10 -29,8 -52,-10 -15,-12 -49,-34 -77,-49 -45,-25 -60,-28 -150,-28 -110,0 -153,15 -207,72 -25,26 -58,90 -58,113 0,7 107,10 318,11 174,1 328,4 342,8 24,7 25,9 25,102 -1,115 -23,190 -80,273 -45,67 -123,126 -200,151 -69,24 -215,28 -289,10 z m 224,-201 c 19,-8 46,-25 59,-37 24,-22 60,-91 61,-114 0,-10 -53,-13 -230,-13 -126,0 -230,3 -230,8 0,4 11,27 23,51 57,111 193,156 317,105 z"
       id="path1707"
       style="fill:#006680" /><path
       d="m 3280,2781 -25,-7 v -444 -445 h 110 110 l 3,443 2,442 -26,10 c -28,11 -136,12 -174,1 z"
       id="path1709"
       style="fill:#006680" /><path
       d="m 5736,2777 c -16,-12 -17,-36 -14,-327 4,-302 5,-317 27,-375 17,-43 40,-76 80,-116 76,-75 155,-103 274,-97 96,4 153,27 213,88 l 39,39 5,-52 5,-52 94,-3 c 60,-2 98,1 107,9 12,9 14,86 14,445 v 434 l -26,10 c -37,14 -167,12 -187,-2 -14,-12 -17,-47 -19,-294 l -3,-281 -30,-48 c -74,-118 -248,-126 -322,-14 l -28,42 -3,294 -3,294 -25,9 c -38,15 -177,12 -198,-3 z"
       id="path1711"
       style="fill:#006680" /></g></svg>
